<svg xmlns="http://www.w3.org/2000/svg" viewBox="0 0 170 95">
  <g fill="none">
    <path fill="#1C1914" d="M168.5 47.5L85 94.2 1.5 47.5 85 .8z"/>
    <path fill="#F9F4EA" d="M85 94.8c-.1 0-.2 0-.3-.1L.3 47.9c-.2-.1-.3-.2-.3-.4s.1-.4.3-.5L84.7.2c.2-.1.4-.1.5 0L169.7 47c.2.1.3.3.3.5s-.1.4-.3.5L85.3 94.8H85zM1.6 47.5L85 93.7l83.4-46.2L85 1.2 1.6 47.5z"/>
    <path fill="#F9F4EA" d="M95.1 35.2v19c0 .8.5 1.2 1.2 1.2s1.3-.4 1.3-1.2h.1v-19h5.4v18.9c0 3.4-2.8 6.1-6.8 6.1-3.9 0-6.9-2.7-6.9-6.1V35.2h5.7zm17.6-.5c3.7 0 6.3 2.7 6.3 6.3v1.7h-4.9v-1.8c0-1-.6-1.6-1.4-1.6-.8 0-1.5.5-1.5 1.6 0 1.8 1.3 2.8 3 4.4l2.3-.1.2 2.3c1.5 1.6 2.7 3.4 2.7 5.8 0 3.9-2.6 6.9-6.8 6.9-4.3 0-6.9-2.3-6.9-6.3v-1.8h4.9v1.8c0 1 .6 1.8 1.7 1.8s1.6-.6 1.6-1.8c0-1-.4-1.8-1.1-2.6l-2.2.1-.1-2.3-.213746-.1760767C108.141311 47.1442248 105.8 44.7935484 105.8 41.6c0-3.6 2.3-6.9 6.9-6.9zm-35.8.5l3.2 9.1 1.3 3.5V35.2h5v10.9l1.6 1.6-1.6 1.7v10.3h-4.7l-3.5-9-1.3-3.5v12.5h-5V49.4l-1.7-1.7 1.7-1.6V35.2h5zm50.6 0v10.2h3.3V35.2h5.6v10.9l1.6 1.6-1.6 1.7v10.3h-5.6v-9.4h-3.3v9.4h-5.7V49.4l-1.6-1.7 1.6-1.6V35.2h5.7zm-61.8 0l1.9 10.9 1.6 1.6-1.2 1.2 1.9 10.8h-5.7l-.4-3.7h-3.3l-.5 3.7h-5l1.9-10.8-1.2-1.2 1.6-1.6 1.9-10.9h6.5zm-24.7 0l1.8 9.6.6 4.3.6-4.3 1.7-9.6H53v10.9l1.6 1.6-1.6 1.7v10.3h-5.4V43.2l-1 6-1.9 10.5h-3.5l-1.7-10.5-.8-6v16.5h-5.1V49.4L32 47.7l1.6-1.6V35.2H41zm21.3 7.7l-1.2 8.9h2.2l-1-8.9z"/>
    <path fill="#D4CDB3" d="M96.7 70.7c.1.1.1.2.1.3-.3.4-.4.5-.7.9-.1.1-.2.1-.3 0-.4-.3-.8-.4-1.3-.3-1.1.1-1.8 1-1.8 2.1.1 1 1.1 1.8 2.2 1.7.3 0 .6-.1.9-.2 0-.2 0-.3-.1-.5-.3 0-.4 0-.6.1-.1 0-.2-.1-.2-.1 0-.4-.1-.6-.1-.9 0-.1.1-.2.2-.2.8-.1 1.2-.1 2-.2.1 0 .2.1.2.2.1 1 .2 1.5.3 2.5 0 .1 0 .1-.1.2 0 0-1 .8-2.5.9-2 .2-3.8-1.2-3.9-3.1 0-2.2 1.4-3.8 3.3-4 .8-.1 1.7.1 2.4.6zm-25.2-1c.4.1.7.1 1.1.2.1 0 .1.1.2.2.1777778 1.1555556.1975309 1.837037.340192 2.8872428L73.2 73.4c.8-1.2 1.2-1.9 1.9-3.1 0-.0833333.0694444-.0972222.150463-.099537L75.5 70.2c.1 0 .1.1.2.1.45 1.26.657 1.953 1.0584 3.0996L76.9 73.8c.5-1.2.7-1.9 1.1-3.1 0-.1.1-.1.2-.1.4 0 .7.1 1.1.1.1 0 .2.1.2.2-.9 2.5-1.4 3.7-2.3 6.2 0 .1-.1.1-.2.1h-.2c-.1 0-.1-.1-.2-.1l-1.3284-3.5424L75.1 73.1c-.9 1.5-1.3 2.2-2.3 3.6 0 .1-.1.1-.2.1h-.2c-.1 0-.2-.1-.2-.2-.4-2.8-.6-4.1-.9-6.7 0-.1.1-.2.2-.2zm17.9.7c.1 0 .2.1.2.2.1 2.5.2 3.8.3 6.4 0 .1-.1.2-.2.2h-.1c-.1 0-.2 0-.3-.1-1.5785714-1.3-2.3811224-1.9964286-3.6887026-3.2902697L85.3 73.5V77c0 .1-.1.2-.2.2h-1.2c-.1 0-.2-.1-.2-.2l.000237-.9070222c.0015408-1.8627556.0130963-3.1396445.099763-5.3929778 0-.1.1-.2.2-.2h.1c.1 0 .2.1.2.1 1.3928571 1.3 2.0959184 1.9964286 3.4702988 3.1301385L88.1 74c0-1.3-.1-2-.1-3.4 0-.1.1-.2.2-.2h1.2zm-7.5.1c.1 0 .2.1.2.2-.1 2.5-.1 3.8-.2 6.3 0 .1-.1.2-.2.2-.5 0-.7 0-1.2-.1-.1 0-.2-.1-.2-.2.1-2.4.1-3.7.2-6.2 0-.1.1-.2.2-.2h1.2zm-15.5-1.7c1.6.3 2.4.5 3.9.7.1 0 .2.1.2.2-.1.4-.1.6-.2 1 0 .1-.1.2-.2.1-1.1-.2-1.6-.3-2.7-.5-.1.5-.1.7-.2 1.2.9.2 1.3.3 2.2.4.1 0 .2.1.2.2-.1.4-.1.6-.2 1 0 .1-.1.2-.2.1-.9-.2-1.4-.2-2.3-.4-.1.5-.1.8-.2 1.3 1.1.2 1.7.3 2.8.5.1 0 .2.1.2.2-.1.4-.1.6-.2 1 0 .1-.1.2-.2.1-1.7-.3-2.5-.4-4.2-.8-.1 0-.2-.1-.2-.2.5-2.3.7-3.6 1.3-6 0-.1.1-.2.2-.1zm39.9.3c.1.1.1.2.1.3-.2.4-.3.6-.6.9-.1.1-.2.1-.2.1-.5-.2-.9-.3-1.4-.2-1.1.2-1.7 1.2-1.5 2.3.2 1 1.2 1.7 2.3 1.5.5-.1.9-.4 1.2-.7.1-.1.2-.1.3 0 .4.2.6.4 1 .6.1 0 .1.2 0 .3-.5.8-1.4 1.3-2.3 1.4-2 .4-3.9-.8-4.2-2.7-.4-2.1.9-3.8 2.8-4.2.9-.2 1.7-.1 2.5.4zm-46.4-1.9c1.1.3 1.7.5 2.8.7 1.2.3 1.9 1.4 1.6 2.5-.2.9-.9 1.4-1.9 1.5.3 1.1.5 1.6.8 2.7 0 .1-.1.3-.2.2-.5-.1-.8-.2-1.3-.3-.1 0-.1-.1-.1-.1-.3-1.1-.4-1.7-.7-2.8-.3-.1-.4-.1-.7-.2-.3.9-.4 1.4-.6 2.3 0 .1-.1.1-.2.1-.5-.1-.7-.2-1.2-.3-.1 0-.2-.1-.1-.2.6-2.4.9-3.6 1.6-6 0-.1.1-.2.2-.1zm54.7 2.1c.6 1.8-.5 3.8-2.5 4.3-2 .6-4-.5-4.4-2.4-.5-1.7.6-3.6 2.5-4.1 1.9-.5 3.8.4 4.4 2.2zM54 65.4c.9.3 1.3.5 2.1.7 1.1.4 1.8 1.4 1.5 2.3-.1.7-.8 1-1.4 1 .5.4 1.1 1 .8 1.9-.3 1.1-1.5 1.5-2.7 1.1-1-.3-1.5-.5-2.5-.8-.1 0-.2-.1-.1-.2.8-2.4 1.3-3.5 2.1-5.9 0-.1.1-.1.2-.1zm56.5 3.1c-1 .3-1.7 1.3-1.4 2.4.3 1 1.4 1.6 2.5 1.3 1.1-.3 1.7-1.4 1.4-2.4-.3-1-1.4-1.6-2.5-1.3zm7.7 2.1c.2.5-.2 1.2-.7 1.4-.6.2-1.2-.1-1.4-.6-.2-.6.2-1.2.7-1.4.6-.2 1.2.1 1.4.6zm-64-1.2c-.2.5-.3.8-.4 1.3.2.1.4.2.7.3.5.2.8 0 1-.4.1-.4-.1-.7-.5-.9-.3-.1-.5-.2-.8-.3zm6.6-.7c-.2.6-.2.9-.4 1.4.7.3 1 .4 1.5.5.4.1.8-.1.9-.6.1-.4-.2-.8-.6-.9-.6-.1-.8-.2-1.4-.4zM54.9 67c-.2.5-.3.8-.4 1.3.3.1.5.1.8.2.4.1.7-.1.8-.4.1-.4-.1-.7-.4-.8-.3-.1-.5-.2-.8-.3zm56.6-44.1c.5.1.7.2 1.2.4.1 0 .2.1.1.2-.6 1.9-.9 2.9-1.6 4.8.9.3 1.3.4 2.2.8.1 0 .1.1.1.2-.1.4-.2.6-.3 1 0 .1-.1.1-.2.1-1.4-.5-2.1-.7-3.5-1.2-.1 0-.2-.1-.1-.2.8-2.4 1.1-3.6 1.9-6 0-.1.1-.1.2-.1zm-48.9 2.2c.5 1.8-.6 3.7-2.5 4.3-1.9.6-3.8-.3-4.5-2.1-.5-1.8.5-3.8 2.5-4.4 2-.6 4 .4 4.5 2.2zm42.8-4.1c.1 0 .1.1.2.1.7 2.8 1 4.2 1.5 7 0 .1-.1.2-.2.2-.4-.1-.6-.2-1-.3-.2 0-.2-.1-.3-.3-.1-.3-.1-.5-.2-.8-1-.3-1.6-.4-2.6-.6-.2.3-.3.4-.5.7-.1.1-.2.2-.4.2-.4-.1-.6-.1-1-.2-.3 0-.3-.2-.2-.3 1.7-2.3 2.6-3.4 4.4-5.6 0 0 .1-.1.2-.1h.1zm-46.8 3.3c-1.1.3-1.7 1.5-1.3 2.4.3 1 1.4 1.5 2.4 1.2 1-.3 1.7-1.4 1.4-2.4-.3-1-1.4-1.6-2.5-1.2zm12.2-2.2c.1.9-.3 1.6-1.1 2.1.7.8 1.1 1.3 1.7 2.1.1.1 0 .3-.1.3-.5.1-.8.1-1.3.2-.1 0-.1 0-.2-.1-.7-.9-1-1.3-1.8-2.2-.3.1-.4.1-.7.1.2.9.3 1.4.5 2.4 0 .1 0 .2-.1.2-.5.1-.7.1-1.1.2-.1 0-.2 0-.2-.1-.7-2.3-1-3.5-1.5-6 0-.1 0-.2.2-.2 1.2-.3 1.8-.4 3.1-.6 1.3-.2 2.4.5 2.6 1.6zm22.6-3c.1 0 .2.1.2.2 1.3928571 1.3928571 2.0959184 2.1821429 3.230102 3.5688411L97.1 23.2c.2-1.3.3-2 .5-3.3 0-.1.1-.2.2-.2.5.1.7.1 1.2.2.1 0 .2.1.2.2-.4 2.5-.6 3.8-1 6.3 0 .1-.1.2-.2.1h-.1c-.1 0-.2-.1-.2-.1-1.2-1.5692308-1.8035503-2.3715976-2.9904415-3.8228493L94.4 22.2c-.2 1.4-.2 2.1-.4 3.5 0 .1-.1.2-.2.2-.5 0-.7-.1-1.1-.1-.1 0-.2-.1-.2-.2.1-2.5.3-3.8.5-6.3 0-.1.1-.2.2-.2h.2zm-18.5.4c.1 0 .2.1.2.2.3 2.5.4 3.7.7 6.2 0 .1-.1.2-.2.2-.5.1-.7.1-1.1.1-.1 0-.2-.1-.2-.2-.3-2.5-.5-3.7-.8-6.2 0-.1.1-.2.2-.2.5-.1.7-.1 1.2-.1zm7-.7c.9 0 1.8.3 2.5.8.1.1.1.2 0 .3l-.4.4-.4.4c-.1.1-.2.1-.3 0-.4-.3-.8-.4-1.3-.4-1.1 0-2 1-1.9 2 .1 1 1 1.8 2 1.8.3 0 .6-.1.9-.2v-.5h-.6c-.1 0-.2-.1-.2-.2v-.9c0-.1.1-.2.2-.2h2c.1 0 .2.1.2.2v2.5c0 .1 0 .1-.1.2 0 0-1 .6-2.4.7-1.9.1-3.6-1.3-3.7-3.2-.1-2 1.4-3.6 3.5-3.7zm7.3.2c.1 0 .2.1.2.2-.1 2.5-.2 3.8-.3 6.3 0 .1-.1.2-.2.2h-1.2c-.1 0-.2-.1-.2-.2.2-2.7.3-3.9.3-6.4 0-.1.1-.2.2-.2.5 0 .7 0 1.2.1zm15.4 4.9c-.4.5-.7.8-1.1 1.4.7.1 1 .1 1.5.3-.085714-.6-.171429-.9061224-.320117-1.4221574L104.6 23.9zm-36.4-2.1c-.6.1-.9.2-1.5.3.1.6.2.9.3 1.4.6-.1.9-.1 1.5-.2.4-.1.7-.5.6-.9-.1-.4-.5-.6-.9-.6z"/>
  </g>
</svg>
